<svg xmlns="http://www.w3.org/2000/svg" width="24px" height="24px" viewBox="0 0 24 24" fill="#000">
<path d="M16.464,10.473l-0.487-0.539c-1.125-1.273-1.964-2.453-2.512-3.543C12.916,5.303,12.424,3.836,11.996,2
	c-0.424,1.836-0.914,3.303-1.46,4.391c-0.55,1.09-1.39,2.27-2.514,3.543l-0.484,0.539c-1.47,1.639-2.204,3.278-2.204,4.916
	c0,1.816,0.656,3.369,1.965,4.666C8.615,21.348,10.178,22,11.997,22c1.827,0,3.393-0.652,4.705-1.945
	c1.31-1.297,1.966-2.85,1.966-4.666C18.668,13.751,17.932,12.111,16.464,10.473z M13.698,19.786
	c-0.652,0.536-1.553,0.786-2.71,0.736c-1.169-0.036-2.186-0.474-3.055-1.412c-0.86-1.081-1.306-2.397-1.345-3.763
	c-0.021-1.202,0.418-2.142,1.297-2.913l0.297-0.238c0.718-0.592,0.396,0.135,0.396,0.135s-0.345,0.347-0.403,1.31
	c-0.012,1.128,0.414,2.45,1.31,3.764c0.958,1.087,1.957,1.63,3.014,1.826c0.671,0.085,1.267-0.001,1.805-0.236
	C14.165,19.292,13.977,19.558,13.698,19.786z"/>
</svg>